<?xml version="1.0" encoding="UTF-8"?>
<svg xmlns="http://www.w3.org/2000/svg" width="726" height="885" viewBox="-17.582 -4.664 726.346 885.321">
  <path fill="#DC143C" stroke="#003893" stroke-width="5" d="M-15.082 438.68l375.69-441.01L-15.082 873.99h682.26l-375.69-435.31 375.69-441.01z"/>
  <path fill="#fff" d="M134.52 118.57c-45.201 0-81.937 36.736-81.937 81.937 0 45.201 36.736 81.937 81.937 81.937 11.867 0 23.171-2.508 33.391-7.045-34.511-7.945-60.264-38.858-60.264-75.937 0-37.079 25.754-68.016 60.264-75.937-10.22-4.537-21.524-7.045-33.391-7.045z"/>
  <path fill="#fff" d="M134.52 538.57c-45.201 0-81.937 36.736-81.937 81.937 0 45.201 36.736 81.937 81.937 81.937 11.867 0 23.171-2.508 33.391-7.045-34.511-7.945-60.264-38.858-60.264-75.937 0-37.079 25.754-68.016 60.264-75.937-10.22-4.537-21.524-7.045-33.391-7.045z"/>
</svg>
